<mxfile host="app.diagrams.net" modified="2024-01-23T14:23:34.527Z" agent="Mozilla/5.0 (Windows NT 10.0; Win64; x64) AppleWebKit/537.36 (KHTML, like Gecko) Chrome/120.0.0.0 Safari/537.36" version="22.1.21" etag="IekJGiLB_xsgG9ODzS8i" type="github">
  <diagram name="第 1 页" id="-EShnu_tk9d9TIDoHzpz">
    <mxGraphModel>
      <root>
        <mxCell id="0" />
        <mxCell id="1" parent="0" />
      </root>
    </mxGraphModel>
  </diagram>
</mxfile>
